<?xml version="1.0" encoding="UTF-8"?>
<svg id="Layer_2" data-name="Layer 2" xmlns="http://www.w3.org/2000/svg" viewBox="0 0 208 208">
  <g id="Icon_variants" data-name="Icon variants">
    <g>
      <path d="M178.29,208H29.71c-16.39,0-29.71-13.33-29.71-29.71V44.57C0,28.18,13.33,14.86,29.71,14.86H178.29c16.39,0,29.71,13.32,29.71,29.71V178.29c0,16.39-13.33,29.71-29.71,29.71ZM29.71,29.71c-8.17,0-14.86,6.69-14.86,14.86V178.29c0,8.17,6.69,14.86,14.86,14.86H178.29c8.17,0,14.86-6.69,14.86-14.86V44.57c0-8.17-6.69-14.86-14.86-14.86H29.71Z"/>
      <circle cx="122.57" cy="92.86" r="11.14"/>
      <circle cx="159.71" cy="92.86" r="11.14"/>
      <circle cx="122.57" cy="130" r="11.14"/>
      <circle cx="159.71" cy="130" r="11.14"/>
      <circle cx="48.29" cy="130" r="11.14"/>
      <circle cx="85.43" cy="130" r="11.14"/>
      <circle cx="48.29" cy="167.14" r="11.14"/>
      <circle cx="85.43" cy="167.14" r="11.14"/>
      <circle cx="122.57" cy="167.14" r="11.14"/>
      <path d="M163.43,29.71c-4.09,0-7.43-3.34-7.43-7.43V7.43c0-4.09,3.34-7.43,7.43-7.43s7.43,3.34,7.43,7.43v14.86c0,4.09-3.34,7.43-7.43,7.43Zm-118.86,0c-4.09,0-7.43-3.34-7.43-7.43V7.43c0-4.09,3.34-7.43,7.43-7.43s7.43,3.34,7.43,7.43v14.86c0,4.09-3.34,7.43-7.43,7.43Z"/>
      <rect x="7.43" y="52" width="193.14" height="14.86"/>
    </g>
  </g>
</svg>